<?xml version="1.0" encoding="UTF-8"?><svg id="Ebene_2" xmlns="http://www.w3.org/2000/svg" viewBox="0 0 1024 1024"><g id="Logo"><g><rect x="545.59" width="478.41" height="478.41" rx="5.29" ry="5.29" fill="#203842"/><path d="M951.54,545.59H483.99c-.24,0-.45-.1-.69-.13-.8-.09-1.52-.36-2.18-.77-.37-.23-.75-.41-1.08-.73-1.07-1.08-1.62-2.4-1.62-3.95V72.46c0-2.92-2.36-5.29-5.29-5.29H5.29c-2.92,0-5.29,2.37-5.29,5.29V1018.71c0,2.92,2.36,5.29,5.29,5.29H951.54c2.92,0,5.29-2.37,5.29-5.29v-467.84c0-2.92-2.36-5.29-5.29-5.29Z" fill="#e3041c"/></g></g></svg>